<svg width="27" height="28" viewBox="0 0 27 28" fill="none" xmlns="http://www.w3.org/2000/svg">
<path d="M19.4195 7.9885H19.4306M7.76771 2.99487H18.8646C21.929 2.99487 24.4131 5.47901 24.4131 8.54334V19.6403C24.4131 22.7046 21.929 25.1888 18.8646 25.1888H7.76771C4.70337 25.1888 2.21924 22.7046 2.21924 19.6403V8.54334C2.21924 5.47901 4.70337 2.99487 7.76771 2.99487ZM17.755 13.3927C17.8919 14.3162 17.7342 15.2594 17.3041 16.0882C16.8741 16.9169 16.1938 17.5889 15.3598 18.0087C14.5259 18.4284 13.5808 18.5745 12.659 18.4262C11.7372 18.2779 10.8857 17.8427 10.2255 17.1825C9.56532 16.5223 9.13011 15.6708 8.98179 14.749C8.83346 13.8272 8.97957 12.8821 9.39932 12.0482C9.81907 11.2142 10.4911 10.5338 11.3198 10.1038C12.1485 9.67383 13.0917 9.51609 14.0153 9.65304C14.9573 9.79273 15.8295 10.2317 16.5029 10.9051C17.1763 11.5785 17.6153 12.4507 17.755 13.3927Z" stroke="#B3B3B3" stroke-width="2.36735" stroke-linecap="round" stroke-linejoin="round"/>
</svg>
