<svg width="26" height="26" viewBox="0 0 26 26" fill="none" xmlns="http://www.w3.org/2000/svg">
<g clip-path="url(#clip0_88_75)">
<path d="M22.1764 11.0196C22.1764 18.1569 13 24.2745 13 24.2745C13 24.2745 3.82349 18.1569 3.82349 11.0196C3.82349 8.58586 4.79029 6.25179 6.51121 4.53087C8.23213 2.80994 10.5662 1.84314 13 1.84314C15.4337 1.84314 17.7678 2.80994 19.4887 4.53087C21.2096 6.25179 22.1764 8.58586 22.1764 11.0196Z" stroke="#1E1E1E" stroke-width="2.29412" stroke-linecap="round" stroke-linejoin="round"/>
<path d="M13 14.0784C14.6893 14.0784 16.0588 12.709 16.0588 11.0196C16.0588 9.33027 14.6893 7.96079 13 7.96079C11.3106 7.96079 9.94113 9.33027 9.94113 11.0196C9.94113 12.709 11.3106 14.0784 13 14.0784Z" stroke="#1E1E1E" stroke-width="2.29412" stroke-linecap="round" stroke-linejoin="round"/>
</g>
<defs>
<clipPath id="clip0_88_75">
<rect width="24.4706" height="24.4706" fill="white" transform="translate(0.764648 0.823517)"/>
</clipPath>
</defs>
</svg>
