<svg width="26" height="26" viewBox="0 0 26 26" fill="none" xmlns="http://www.w3.org/2000/svg">
<g clip-path="url(#clip0_88_74)">
<path d="M1.78418 1.96078H5.86261L8.59516 15.6133C8.6884 16.0828 8.94377 16.5044 9.31658 16.8045C9.68939 17.1046 10.1559 17.2641 10.6344 17.2549H20.545C21.0235 17.2641 21.49 17.1046 21.8628 16.8045C22.2356 16.5044 22.4909 16.0828 22.5842 15.6133L24.2156 7.05882H6.88222M10.9607 22.3529C10.9607 22.9161 10.5042 23.3726 9.94104 23.3726C9.37793 23.3726 8.92143 22.9161 8.92143 22.3529C8.92143 21.7898 9.37793 21.3333 9.94104 21.3333C10.5042 21.3333 10.9607 21.7898 10.9607 22.3529ZM22.1763 22.3529C22.1763 22.9161 21.7198 23.3726 21.1567 23.3726C20.5936 23.3726 20.1371 22.9161 20.1371 22.3529C20.1371 21.7898 20.5936 21.3333 21.1567 21.3333C21.7198 21.3333 22.1763 21.7898 22.1763 22.3529Z" stroke="#1E1E1E" stroke-width="2.29412" stroke-linecap="round" stroke-linejoin="round"/>
</g>
<defs>
<clipPath id="clip0_88_74">
<rect width="24.4706" height="24.4706" fill="white" transform="translate(0.764648 0.941162)"/>
</clipPath>
</defs>
</svg>
