<svg width="26" height="26" viewBox="0 0 26 26" fill="none" xmlns="http://www.w3.org/2000/svg">
<g clip-path="url(#clip0_76_89)">
<path d="M24.5357 3.88261C23.5439 4.58221 22.4458 5.11729 21.2836 5.46725C20.6598 4.75003 19.8308 4.24168 18.9087 4.01096C17.9866 3.78024 17.0159 3.83827 16.1279 4.17722C15.2398 4.51617 14.4773 5.11967 13.9434 5.9061C13.4096 6.69253 13.1301 7.62396 13.1429 8.57439V9.61011C11.3227 9.6573 9.51918 9.25363 7.89283 8.43503C6.26648 7.61644 4.86783 6.40834 3.82143 4.91832C3.82143 4.91832 -0.321429 14.2397 9 18.3826C6.86698 19.8305 4.32598 20.5565 1.75 20.454C11.0714 25.6326 22.4643 20.454 22.4643 8.54332C22.4633 8.25483 22.4356 7.96704 22.3814 7.68368C23.4385 6.64123 24.1844 5.32506 24.5357 3.88261Z" stroke="#B3B3B3" stroke-width="2.36735" stroke-linecap="round" stroke-linejoin="round"/>
</g>
<defs>
<clipPath id="clip0_76_89">
<rect width="24.8571" height="24.8571" fill="white" transform="translate(0.714355 0.775513)"/>
</clipPath>
</defs>
</svg>
