<svg width="29" height="29" viewBox="0 0 29 29" fill="none" xmlns="http://www.w3.org/2000/svg">
<g clip-path="url(#clip0_76_88)">
<path d="M27.1493 7.75742C27.0087 7.18396 26.7224 6.65853 26.3192 6.2342C25.916 5.80988 25.4102 5.50168 24.853 5.34075C22.8171 4.83325 14.6734 4.83325 14.6734 4.83325C14.6734 4.83325 6.52976 4.83325 4.49384 5.38909C3.93662 5.55002 3.43087 5.85821 3.02768 6.28253C2.62448 6.70686 2.33812 7.23229 2.19751 7.80575C1.82491 9.91496 1.64265 12.0546 1.65302 14.1978C1.63974 16.3572 1.82201 18.5132 2.19751 20.6383C2.35252 21.1939 2.6453 21.6993 3.04756 22.1057C3.44981 22.5122 3.94795 22.8058 4.49384 22.9583C6.52976 23.5141 14.6734 23.5141 14.6734 23.5141C14.6734 23.5141 22.8171 23.5141 24.853 22.9583C25.4102 22.7973 25.916 22.4891 26.3192 22.0648C26.7224 21.6405 27.0087 21.115 27.1493 20.5416C27.5191 18.4483 27.7013 16.3249 27.6938 14.1978C27.7071 12.0385 27.5248 9.88251 27.1493 7.75742Z" stroke="#B3B3B3" stroke-width="2.36735" stroke-linecap="round" stroke-linejoin="round"/>
<path d="M12.0102 18.1491L18.8163 14.1978L12.0102 10.2466V18.1491Z" stroke="#B3B3B3" stroke-width="2.36735" stroke-linecap="round" stroke-linejoin="round"/>
</g>
<defs>
<clipPath id="clip0_76_88">
<rect width="28.4082" height="29" fill="white" transform="translate(0.469238)"/>
</clipPath>
</defs>
</svg>
